<svg version="1.2" xmlns="http://www.w3.org/2000/svg" viewBox="0 0 2079 783" width="700" height="264">
	<style>
		.s0 { fill: #eaf1f8 } 
		.s1 { fill: #acd29a } 
		.s2 { fill: #4b1787 } 
		.s3 { fill: #b07aea } 
		.s4 { fill: #ffffff } 
		.s5 { fill: #adcbf9 } 
		.s6 { fill: #699ff0 } 
		.s7 { fill: #9e69ce } 
		.s8 { fill: #6b2ba7 } 
		.s9 { fill: #b77446 } 
		.s10 { fill: #14a884 } 
		.s11 { fill: #eb3d3f } 
		.s12 { fill: #a40707 } 
		.s13 { fill: #d9935c } 
		.s14 { fill: #008d6a } 
		.s15 { fill: #a86337 } 
		.s16 { fill: #cc7c46 } 
		.s17 { opacity: .25;fill: #f7df52 } 
		.s18 { fill: #a6d9f1 } 
		.s19 { fill: #ee9849 } 
		.s20 { fill: #c95c12 } 
		.s21 { fill: #e49963 } 
		.s22 { fill: #d38957 } 
		.s23 { fill: #ffb27d } 
		.s24 { fill: #e58d5c } 
		.s25 { fill: #d68d5d } 
		.s26 { fill: #992b25 } 
		.s27 { fill: #373480 } 
		.s28 { fill: #575b9f } 
		.s29 { fill: #e2e7f2 } 
		.s30 { fill: #ced4ea } 
		.s31 { fill: #bcc5dd } 
		.s32 { fill: #000000 } 
	</style>
	<g>
		<g>
			<path class="s0" d="m82.33 763.87c0 0-108.44-344.13 68.85-460.43 170.99-112.17 338.91-13.78 400.39-145.89 39.65-85.21 272.04-164.91 393.46 8.35 121.43 173.27 225.81 172.4 309.59 140.34 96.08-36.75 145.96-161.37 296.35-137.98 173.83 27.04 162.78 186.52 270.97 176.41 196.74-18.38 363.14 239.44 141.49 421.37z"/>
			<g>
				<path class="s1" d="m790.1 763.16c0 0-36.53-102.48 105.81-102.06 173.45 0.52 66.54-84.74 185.8-127.46 99.51-35.64 203.73 60.87 203.73 60.87 0 0 115.87-314.8 268.39-225.33 152.51 89.46-51.59 259.05-51.59 259.05 0 0 102.77 64.01 110.82 136.83z"/>
				<path class="s1" d="m1558.11 739.8c0 0 108.38-2.8 100.06-35.08-8.33-32.29-100.06 35.08-100.06 35.08z"/>
				<path class="s1" d="m1573.29 720.2c0 0 68.23-35.41 52.9-53.41-15.32-18-52.9 53.41-52.9 53.41z"/>
				<path class="s1" d="m967.36 699.45c0 0-31.33-175.71-85.25-182.46-53.92-6.76-17.45 74.08 85.25 182.46z"/>
				<path class="s1" d="m929.13 680.62c0 0-59.41-92.76-91.74-83.86-32.33 8.89 7.57 46.36 91.74 83.86z"/>
			</g>
			<g>
				<g>
					<path class="s2" d="m1584.95 13.27h-354.96c-11.13 0-20.24 9.11-20.24 20.23v709.85c0 11.13 9.11 20.24 20.24 20.24h354.96c11.13 0 20.24-9.11 20.24-20.24v-709.85c0-11.12-9.11-20.23-20.24-20.23z"/>
					<path class="s3" d="m1546.62 13.27h-354.96c-11.13 0-20.24 9.11-20.24 20.23v709.85c0 11.13 9.11 20.24 20.24 20.24h354.96c11.13 0 20.24-9.11 20.24-20.24v-709.85c0-11.12-9.11-20.23-20.24-20.23z"/>
					<path fill-rule="evenodd" class="s4" d="m1186.4 73.26h366.31v607.99h-366.31z"/>
					<g>
						<path class="s2" d="m1413.98 41.67h-102.79c-2.2 0-4 1.8-4 4 0 2.2 1.8 4 4 4h102.79c2.2 0 4-1.8 4-4 0-2.2-1.8-4-4-4z"/>
						<path class="s2" d="m1432.24 41.67c-2.2 0-4 1.8-4 4 0 2.2 1.8 4 4 4 2.2 0 4-1.8 4-4 0-2.2-1.8-4-4-4z"/>
					</g>
					<path class="s2" d="m1361.01 706.96c-11.32 0-20.48 9.17-20.48 20.48 0 11.31 9.17 20.48 20.48 20.48 11.31 0 20.48-9.17 20.48-20.48 0-11.31-9.17-20.48-20.48-20.48z"/>
				</g>
				<path fill-rule="evenodd" class="s5" d="m1184.95 467.11h367.76v220.8h-367.76z"/>
				<g>
					<g>
						<path class="s6" d="m1356.17 648.35c-40.35 0-73.19-32.83-73.19-73.19 0-40.35 32.84-73.18 73.19-73.18 40.35 0 73.19 32.83 73.19 73.18-0.01 40.36-32.84 73.19-73.19 73.19zm0-136.82c-35.08 0-63.63 28.55-63.63 63.63 0 35.09 28.55 63.63 63.63 63.63 35.09 0 63.63-28.54 63.63-63.63 0-35.08-28.54-63.63-63.63-63.63z"/>
					</g>
					<path class="s7" d="m1306.8 564.29c0 0 32.08 37.14 51.14 54.06 0 0 36.88-75.85 81.14-128.92 0 0-51.24 37.97-94.23 85.95 0 0-11.95-1.71-38.05-11.09z"/>
				</g>
				<g>
					<path fill-rule="evenodd" class="s8" d="m1304.76 185.13h171.92l22.01 164.67h-143.18z"/>
					<g>
						<g>
							<path class="s8" d="m1416.95 203.15q-0.02 0-0.04 0c-1.42-0.02-2.55-1.18-2.52-2.6 0.55-36.12-5.09-60.18-16.76-71.5-5.84-5.66-13.06-8.21-22.08-7.8-34.18 1.58-36.78 78.64-36.8 79.41-0.04 1.42-1.22 2.51-2.63 2.49-1.42-0.04-2.53-1.22-2.49-2.63 0.1-3.37 2.79-82.58 41.68-84.38 10.37-0.48 19.07 2.63 25.88 9.23 12.91 12.52 18.9 37.14 18.31 75.26-0.02 1.4-1.16 2.52-2.55 2.52z"/>
						</g>
						<path fill-rule="evenodd" class="s7" d="m1440.68 185.13h-159.27l-33.61 164.67h175.03z"/>
						<g>
							<path class="s4" d="m1382.99 229.79q-0.53 1.63-2.72 4.34l-30.21 37.01q-2.45 3.15-7.55 9.44-6.25 7.62-18.67 22.96-3.61 4.45-7.31 4.45-2.06 0-3.03-1.36-0.97-1.36-0.3-3.42 0.53-1.63 3.25-5l55.35-68.09q3.8-4.67 7.17-4.67 5.43 0 4.02 4.34zm-31.13 14.94q-2.43 7.47-8.86 12.72-6.43 5.25-13.93 5.25-7.38 0-10.51-5.25-3.12-5.25-0.7-12.72 2.5-7.69 9.02-13.05 6.52-5.36 14.12-5.36 7.6 0 10.59 5.52 2.76 5.2 0.27 12.89zm-19.89 9.06q3.69 0 6.77-2.8 2.66-2.49 3.92-6.37 1.23-3.78 0.22-6.37-1.08-3.03-4.77-3.03-3.8 0-6.81 2.92-2.65 2.48-3.95 6.48-1.16 3.56-0.01 6.37 1.15 2.8 4.63 2.8zm45.94 35.41q-2.47 7.6-8.94 12.81-6.47 5.22-13.96 5.22-7.28 0-10.38-5.33-3.11-5.32-0.71-12.7 2.54-7.82 8.94-13.14 6.4-5.32 14.11-5.32 7.82 0 10.67 5.26 2.85 5.27 0.27 13.2zm-9.23-0.33q1.24-3.8 0.24-6.4-1.26-2.83-4.95-2.83-3.69 0-6.74 3.04-2.7 2.61-3.93 6.41-1.17 3.58-0.06 6.19 1.22 2.93 4.7 2.93 3.68 0 6.81-2.93 2.66-2.5 3.93-6.41z"/>
						</g>
						<g>
							<path class="s8" d="m1400.37 203.15q-0.02 0-0.04 0c-1.41-0.02-2.54-1.18-2.52-2.6 0.56-36.12-5.08-60.18-16.76-71.5-5.83-5.66-13.05-8.21-22.07-7.8-34.18 1.58-36.78 78.64-36.81 79.41-0.04 1.42-1.21 2.51-2.63 2.49-1.41-0.04-2.52-1.22-2.48-2.63 0.09-3.37 2.79-82.58 41.68-84.38 10.37-0.48 19.07 2.63 25.88 9.23 12.91 12.52 18.9 37.14 18.31 75.26-0.02 1.4-1.16 2.52-2.56 2.52z"/>
						</g>
					</g>
					<path fill-rule="evenodd" class="s7" d="m1459.1 191.38l-14.27 158.36h39.59z"/>
				</g>
				<g>
					<path class="s5" d="m1241.48 397.32l102.85-0.22c2.16-0.01 3.93-1.78 3.93-3.95-0.01-2.17-1.78-3.93-3.95-3.93l-102.85 0.22c-2.17 0.01-3.93 1.79-3.93 3.95 0 2.17 1.78 3.94 3.95 3.93z"/>
					<path class="s5" d="m1227.11 397.35h0.29c2.16 0 3.93-1.78 3.93-3.94-0.01-2.17-1.78-3.94-3.95-3.93h-0.28c-2.17 0-3.94 1.78-3.93 3.94 0 2.17 1.78 3.94 3.94 3.93z"/>
					<path class="s5" d="m1241.51 411.22l102.85-0.22c2.17-0.01 3.93-1.78 3.93-3.95-0.01-2.16-1.78-3.93-3.95-3.93l-102.85 0.23c-2.16 0-3.93 1.78-3.93 3.94 0.01 2.17 1.78 3.94 3.95 3.93z"/>
					<path class="s5" d="m1227.14 411.25h0.29c2.16 0 3.93-1.78 3.93-3.94-0.01-2.17-1.79-3.94-3.95-3.93h-0.28c-2.17 0-3.94 1.78-3.93 3.94 0 2.17 1.78 3.94 3.94 3.93z"/>
					<path class="s5" d="m1344.37 417.02l-102.85 0.22c-2.17 0.01-3.93 1.78-3.93 3.95 0 2.17 1.78 3.94 3.95 3.93l102.85-0.22c2.16-0.01 3.93-1.78 3.93-3.95-0.01-2.17-1.78-3.93-3.95-3.93z"/>
					<path class="s5" d="m1227.44 417.27h-0.28c-2.17 0.01-3.94 1.78-3.93 3.95 0 2.17 1.78 3.94 3.94 3.93h0.28c2.17-0.01 3.94-1.78 3.93-3.95 0-2.16-1.78-3.93-3.94-3.93z"/>
				</g>
			</g>
			<g>
				<path class="s8" d="m646.48 274.37c0 0-34.88-15.22-40.69 20.52-2.81 17.21 12.31 34.54 8.55 43.43-3.77 8.89-18.13 28.04-8.9 36.93 0 0-0.68-8.55 4.79-15.05 0 0-7.34 23.65 7.96 26.7 15.3 3.06 40.6-10.62 38.89-34.56-1.71-23.94-10.6-77.97-10.6-77.97z"/>
				<path class="s8" d="m671.44 279.84c0 0-7.52-10.26-27.35-6.84-19.84 3.42-13.7 44.4 3.23 51.44z"/>
				<path class="s9" d="m753.51 758.62c-0.42 1.27-2.81 3.81-8.97 4.96h-15.72c-3.33-0.57-4.28-1.27-9.82-0.58-8.45 1.04-15.9 1.04-16.33-4.24-0.15-1.86 0.18-3.7 0.52-5.5 0.63-3.31 3.32-5.83 2.82-9.61-1.1-8.42-11.88-34.1-11.88-34.1l18.51-3.46c0 0 4.69 29.97 9.83 36.55 4.56 5.84 10.51 9.57 17.4 11.26q1.16 0.29 2.32 0.56c6.11 1.44 11.82 2.66 11.32 4.16z"/>
				<path class="s10" d="m753.51 758.62c-0.42 1.27-2.81 3.81-8.97 4.96h-15.72c-3.33-0.57-4.28-1.27-9.82-0.58-8.45 1.04-15.9 1.04-16.33-4.24-0.15-1.86 0.18-3.7 0.52-5.5 5.49 0.55 13.62 3.81 21.58 4.55 9.75 0.91 17.34-3.24 17.34-3.24l0.08-0.11c6.11 1.44 11.82 2.66 11.32 4.16z"/>
				<g>
					<path class="s11" d="m719.21 727.67c0 0-4.84 3.21-9.4 4.04-6.84 1.24-10.01-0.14-10.01-0.14 0 0-32.87-82.55-31-110.44q0.07-1.01 0.08-2.14c0.05-4.84-0.64-11.29-1.84-18.71q-0.67-4.09-1.52-8.52c-1.32-6.88-2.95-14.3-4.75-21.86q-1.18-5.01-2.44-10.05c-8.27-33-18.37-65.52-18.37-65.52 0 0 59.33-19.38 62.68-1.27 1.29 6.95 5.58 34.76 3.65 77.29-1.56 34.23-0.55 60.94 2.41 91.93 2.6 27.22 7.05 50.62 10.51 65.39z"/>
				</g>
				<path class="s12" d="m668.88 618.99c0.06-4.84-0.64-11.29-1.84-18.71q-0.67-4.09-1.52-8.52c-1.32-6.88-2.95-14.3-4.75-21.86q-1.18-5-2.44-10.05c1.17-10.07 2.11-16.98 2.11-16.98 0 0 24.63 33.46 8.44 76.12z"/>
				<path class="s9" d="m678.67 758.62c-0.42 1.27-2.81 3.81-8.98 4.96h-15.72c-3.33-0.57-4.28-1.27-9.82-0.58-8.44 1.04-15.9 1.04-16.32-4.24-0.16-1.86 0.18-3.7 0.51-5.5 0.64-3.31 2.83-5.8 2.83-9.61 0-11.32-2.63-31.9-2.63-31.9l17.4 6.22c0 0-3.92 20.45 1.69 24.67 5.91 4.45 10.51 9.57 17.4 11.26q1.16 0.29 2.31 0.56c6.11 1.44 11.82 2.66 11.33 4.16z"/>
				<path class="s10" d="m678.67 758.62c-0.42 1.27-2.81 3.81-8.98 4.96h-15.72c-3.33-0.57-4.28-1.27-9.82-0.58-8.44 1.04-15.9 1.04-16.32-4.24-0.16-1.86 0.18-3.7 0.51-5.5 5.49 0.55 13.63 3.81 21.58 4.55 9.76 0.91 17.35-3.24 17.35-3.24l0.07-0.11c6.11 1.44 11.82 2.66 11.33 4.16z"/>
				<path class="s11" d="m675.7 487.87c0 0-19.3 96.19-22.56 148.55-3.26 52.35-7.33 95.7-7.33 95.7 0 0-4.22 1.52-9.05 1.24-5.1-0.29-9.15-1.86-9.15-1.86 0 0-19.13-78.77-12.79-110.31 6.34-31.53 1.06-60.61-1.98-86.76-4.36-37.5 12.41-54.93 24.13-66.82 11.86-12.02 38.73 20.26 38.73 20.26z"/>
				<path class="s13" d="m679.91 361.97l-9.24 13.87-18.63-0.92-8.6-22.24c0 0 2.65-0.5 3.89-28.24l23.25 7.09c0 0-1.24 7.23 0.41 15.11 1.14 5.49 3.66 11.35 8.92 15.33z"/>
				<path class="s13" d="m682.51 352.18c-1.2 0-23.1-7.32-54.38 5.41 0 0 14.85 84.95 8.47 101.17-6.38 16.21-8.8 30.6-8.8 30.6l69.19 0.86c0 0-0.97-55.65 2.22-75.35 3.19-19.69-16.7-62.69-16.7-62.69z"/>
				<path class="s10" d="m797.43 409.35c-0.21-2.42-0.97-2.98-0.97-2.98-22.12 3.25-36.79 3.07-43.97 4.47-5.64 1.09-7.95 1.25-8.92-0.12-30.56-42.97-52.19-56.46-52.19-56.46 0 0-2.3-1.37-11.33-2.62 0 0-1.29 16.34-9.69 17.73-14.52 2.39-26.23-10.91-29.64-16.27 0 0-16.68 4.21-21.58 9.79-3.52 4.01-3.06 13.61-2.01 19.64 0.33 1.91 0.72 3.47 1.06 4.37 1.03 2.74 4.94 22.77 6.72 30.74q0.06 0.31 0.12 0.57 0.18 0.8 0.33 1.39 0 0.02 0.01 0.03 0.15 0.65 0.26 0.97 0.06 0.2 0.12 0.4 0 0.01 0.01 0.02c2.57 8.2 4.12 16.56 3.21 26.81-0.1 1.21-0.38 2.66-0.79 4.3-2.33 11.91-11.98 35.4-13.99 46.19 1.16 2.43 3.78 4.36 6.96 5.89 4.16 2.01 9.26 3.35 13.33 4.28 3.15 0.72 7.99 1.54 13.58 2.16 2.96 0.33 6.13 0.61 9.36 0.8q0.68 0.04 1.37 0.08c20.84 1.03 44.18 0.52 47.22-9.39 1.46-4.76-4.35-33.35-5.13-41.84-1.35-14.92 0.86-35.36 1.85-51.18 17.11 18.85 34.77 25.63 34.77 25.63 4.22-0.2 9.09-0.99 14.18-2.13 5.47-1.22 11.2-2.84 16.68-4.58 15.49-4.91 30.06-11.78 30.06-11.78 0 0-0.54-1.58-0.99-6.91z"/>
				<path class="s14" d="m673.58 479.58c-3.95 13.4-6.24 24.42-16.16 31.87-3.23-0.19-6.4-0.47-9.36-0.8-5.59-0.62-10.43-1.44-13.58-2.16-4.07-0.93-9.17-2.27-13.33-4.28-3.18-1.53-5.8-3.46-6.96-5.89 2.01-10.79 11.66-34.28 13.99-46.19q0.34-1.74 0.46-3.12c0.86-10.67-0.53-19.44-2.88-27.99q-0.01-0.01-0.01-0.02-0.19-0.69-0.38-1.37-0.01-0.02-0.01-0.03-0.13-0.45-0.33-1.39-0.06-0.26-0.12-0.57c-1.59-7.55-5.76-31.26-6.82-34.36-0.33-0.98-0.71-2.65-1.04-4.72l8.33-8.02c0 0 47.8 20.41 58.33 48.57 10.53 28.15-4.46 41.26-10.13 60.47z"/>
				<path class="s14" d="m768.36 428.04c-10.58 3.35-22.1 6.29-30.87 6.71 0 0-17.55-6.49-34.76-25.63-0.72-3.26-1.77-9.08 2.17-7.51 5.53 2.21 25.97 28.45 33.7 29 5.53 0.39 21.27-1.48 29.76-2.57z"/>
				<path class="s10" d="m730.61 420.56c0 0-23.56 11.84-43.99 16.74-5.88 1.4-11.54 2.4-16.37 2.63 0 0-22.12-6.65-38.73-30.24-30.7-43.59-7.39-50.25-7.39-50.25 0 0 21.64 13.49 52.19 56.46 1.07 1.51 3.75 1.17 10.7-0.24 7.43-1.5 22.2-1.32 42.6-4.31 0 0 0.35 0.76 0.55 3.18 0.46 5.33 0.44 6.03 0.44 6.03z"/>
				<path class="s15" d="m798.42 416.27c0 0-14.57 6.86-30.06 11.77-5.48 1.74-11.21 3.36-16.68 4.58-2.2-9.76-0.68-17.37 0.81-21.78 7.18-1.4 22.54-1.49 44.66-4.74z"/>
				<path class="s15" d="m791.62 407.47c0 0 5.6-1.08 10.26-3.42 4.67-2.33 17.1-3.88 19.74-1.39 2.64 2.48-2.8 12.59-14.14 12.9-11.35 0.31-14.61 2.17-14.61 2.17z"/>
				<g>
					<path class="s8" d="m811.8 373.05l-63.26 12.3c-2.77 0.54-5.04 3.25-5.04 6.02v43.72c0 2.77 2.27 4.59 5.04 4.05l63.26-12.29c2.77-0.54 5.03-3.25 5.03-6.02v-43.72c0-2.77-2.26-4.59-5.03-4.06z"/>
					<path class="s7" d="m814.32 373.05l-63.26 12.3c-2.77 0.54-5.04 3.25-5.04 6.02v43.72c0 2.77 2.27 4.59 5.04 4.05l63.26-12.29c2.77-0.54 5.03-3.25 5.03-6.02v-43.72c0-2.77-2.26-4.59-5.03-4.06z"/>
					<path class="s8" d="m752.11 388.77c-1.14 0.22-2.07 1.33-2.07 2.47 0 1.14 0.93 1.89 2.07 1.66 1.14-0.22 2.07-1.32 2.07-2.47 0-1.14-0.93-1.88-2.07-1.66z"/>
				</g>
				<path class="s9" d="m759.16 406.02c-2.82-2.65-16.09-1-21.07 1.49-2.91 1.46-6.16 2.46-8.36 3.04q0-0.03 0-0.03c-20.4 2.99-35.28 3.64-42.7 5.14 2.32 5.01 4.07 12.77-0.41 21.63 19.51-4.67 42.37-15.11 44.39-16.04 2.29-0.58 6.35-1.27 13.05-1.46 12.12-0.33 17.92-11.11 15.1-13.77z"/>
				<path class="s16" d="m670.99 346.64c-9.61-0.78-23.66-22.2-23.66-22.2l23.25 7.09c0 0-1.24 7.23 0.41 15.11z"/>
				<path class="s13" d="m676.67 333.1c0 0-27.85 5.6-31.06-11.8-3.22-17.39-8.97-28.38 8.67-32.69 17.64-4.3 22.33 1.69 24.81 7.24 2.49 5.54 4.74 35.35-2.42 37.25z"/>
				<path class="s8" d="m663.06 284.27c0 0 0.49 5.9-8.67 15.91-9.16 10.01-3.96 25.74-3.96 25.74 0 0-18.44-26.89-10.21-36.15 8.23-9.27 22.84-5.5 22.84-5.5z"/>
				<path class="s8" d="m651.87 276.6c0 0 13.84-4.64 27.57 8.9 5.92 5.83 5.03 17.29 1.86 23.94 0 0-4.87-14.25-13.73-17.36-8.86-3.11-15.7-15.48-15.7-15.48z"/>
				<path class="s4" d="m667.99 324.55c0 0 0.75 2.06 5.99 1.12 0 0 4.4-0.78 3.99-3.1 0.01 0-4.48-1.16-9.98 1.98z"/>
			</g>
			<g>
				<path class="s13" d="m926.8 395.01l-4.2 6.8c-2.18 2.5-2.76 3.9-4.49 4.75-4.17 2.05-11.87 7.32-12.45 18.38 0 0 0.13 6.25 4.33 4.23 4.19-2.03 2.36-1.84 8.33-4.58 5.96-2.73 8.17-11.42 8.69-14.38l4.87-6.39z"/>
				<g>
					<path class="s13" d="m1192.57 295.4c0 0 4.46-10.91 9.35-11.35 4.9-0.45 20.48-2.9 21.59-0.67 1.11 2.23 0 10.24-3.34 13.13-3.34 2.89-24.03 7.57-24.03 7.57z"/>
					<path class="s13" d="m1117.43 756.69c-0.55 1.7-3.72 5.14-12.01 6.74h-21.67c-2.86-0.52-4.48-1.06-8.38-0.8q-0.22 0.01-0.45 0.03-0.29 0.02-0.58 0.05-1.12 0.1-2.5 0.28-1.86 0.26-3.65 0.44-0.8 0.09-1.59 0.15h-8.94q-0.49-0.06-0.95-0.15-1.54-0.28-2.77-0.81-0.01 0-0.03-0.01c-2.15-0.94-3.51-2.52-3.74-4.97-0.23-2.46 0.18-4.9 0.6-7.28q0.08-0.43 0.18-0.85c0.87-4.08 3.11-5.41 3.52-10.11 0.77-8.8-6.51-39.34-6.51-39.34h27.74c0 0-0.75 27.65 2.42 36.96 2.99 8.78 12.05 11.49 21.19 13.63q1.54 0.36 3.07 0.7 0.56 0.13 1.12 0.25c7.67 1.71 14.53 3.19 13.93 5.09z"/>
					<g>
						<path class="s10" d="m1017.89 458.87c2.34 13.14 5.68 26.73 8.58 40.85 4.66 22.72 8.18 46.85 4.58 72.84-0.46 3.34-0.71 7.03-0.77 11-0.7 45.93 19.82 129.16 19.82 129.16 0 0 5.58 2.4 14.92 1.94 4.81-0.24 12.19-3.34 12.19-3.34 0 0 1.94-51.6 2.06-121 0.08-50.31 9.96-116.54 11.95-155.46 1.21-23.56-1.41-54.94-1.41-54.94 0 0-40.91-32.89-55.6-16.06-14.52 16.63-25.09 45.83-16.32 95.01z"/>
					</g>
					<path class="s14" d="m1031.05 572.56c-0.46 3.34-0.71 7.03-0.77 11 30.64-44.38 37.41-141.17 37.41-141.17l-33.65 16.33c0 0-3.69 18.15-7.57 41 4.66 22.72 8.18 46.85 4.58 72.84z"/>
					<path class="s13" d="m1028.92 757.04c-0.51 1.59-3.28 4.68-10.37 6.39h-25.11c-1.91-0.38-3.56-0.65-6.57-0.45q-0.22 0.01-0.45 0.03-0.29 0.02-0.58 0.05-1.12 0.1-2.51 0.29c-0.21 0.03-17.48-0.2-17.89-0.38q-0.02 0-0.03-0.01c-2.16-0.94-3.51-2.52-3.74-4.97-0.23-2.46 0.18-4.89 0.6-7.27q0.08-0.43 0.18-0.86c0.86-4.07 3.24-6.66 3.66-11.36 0.77-8.79-0.83-39.81-0.83-39.81l25.7 2.15c0 0-4.54 27.21-1.36 36.53 2.99 8.78 12.05 11.49 21.19 13.64q1.54 0.35 3.07 0.69 0.56 0.13 1.12 0.25c7.66 1.71 14.52 3.18 13.92 5.09z"/>
					<path class="s10" d="m965.29 715.07c0 0 6.61 3.13 11.36 4.08 4.76 0.95 14.64-0.91 14.64-0.91 1.79-19.98 5.93-51.23 13.98-86.5 9.16-40.15 22.8-87.59 41.81-132.52 4.06-9.59 20.81-55.01 23.65-66.47 8.59-34.63-0.03-30.9-0.03-30.9l-75.11-8.81c0 0-9.26 4.75-13.52 53.65-1.27 14.65-1.43 77.88-3.35 89.87-1.82 11.35-3.96 20.79-6.45 26.92-13.96 34.25-6.98 151.59-6.98 151.59z"/>
					<path class="s12" d="m1028.92 757.12c-0.51 1.61-3.28 4.73-10.37 6.46h-25.11c-1.91-0.38-3.56-0.66-6.57-0.46q-0.22 0.02-0.45 0.04-0.29 0.02-0.58 0.05-1.14 0.09-2.52 0.25-0.57 0.07-1.13 0.12h-15.15q-0.85-0.19-1.6-0.46-0.02 0-0.03-0.01c-2.16-0.96-3.51-2.55-3.74-5.03-0.23-2.49 0.18-4.94 0.6-7.35q0.08-0.44 0.18-0.87c7.56 1.06 18.33 5.34 28.88 6.36 12 1.18 21.65-3.24 23.67-4.24 7.66 1.72 14.52 3.21 13.92 5.14z"/>
					<path class="s12" d="m1117.43 756.78c-0.55 1.72-3.72 5.19-12.01 6.82h-21.67c-2.86-0.53-4.48-1.07-8.38-0.81q-0.22 0.01-0.45 0.03-0.29 0.02-0.58 0.05-1.13 0.08-2.52 0.25-2.41 0.29-4.71 0.48c-3.51 0.29-6.78 0.35-9.53 0q-2.02-0.25-3.64-0.82-0.01 0-0.03-0.01c-2.15-0.95-3.51-2.55-3.74-5.03-0.23-2.49 0.18-4.96 0.6-7.37q0.08-0.43 0.18-0.86c7.56 1.06 18.33 5.34 28.88 6.36 12 1.19 21.65-3.23 23.67-4.24 7.67 1.72 14.53 3.22 13.93 5.15z"/>
					<path class="s12" d="m1080.22 168.14c2.53-20.72-3.94-53.88-45.29-48.58-41.35 5.3-54.39 45.94-46.05 64.01 8.34 18.07-12 22.43-18.39 41.86-5.49 16.69-7.4 37.42-16.28 46.72-28.62 29.99 27.49 76.11 61.31 66.39 61.62-17.72 69.55-20.36 67.36-68.77-1.12-24.8-20.41-34.41-8.16-41.59 29.6-17.34-0.24-13.16 5.5-60.04z"/>
					<path class="s13" d="m1019.43 222.37l11.4 29.44 24.58 1.2 12.27-18.32c-7.74-5.89-11.01-14.72-12.21-22.62-0.98-6.33-0.71-12.05-0.44-15.16 0.17-1.58 0.33-2.51 0.33-2.51l-30.64-9.32-0.11-0.05c-0.38 8.12-0.81 14.5-1.31 19.46-1.74 17.5-3.87 17.88-3.87 17.88z"/>
					<path class="s13" d="m1067.79 221.33c-1.59 0-28.44-5.46-73.79 6.14 0 0 24.83 113.8 16.4 135.25-8.44 21.44-11.65 40.48-11.65 40.48l91.54 1.13c0 0-1.28-73.61 2.93-99.67 4.22-26.06-25.43-83.33-25.43-83.33z"/>
					<path class="s7" d="m1192.94 289.93c0 0-52.15 19.6-57.34 19.97-11.29 0.81-22.78-53.69-33.34-71.85-7.14-12.3-31.22-16.22-34.25-16.67q-0.11-0.02-0.23-0.05 0 0.01 0 0.02-0.09-0.02-0.09-0.02l0.07 0.29c-0.24 2.49-2.34 21.13-12.71 22.84-19.21 3.17-34.69-14.43-39.21-21.52v0.01l-0.01-0.01c0 0-21.77 0.86-31.86 10.26-11.42 10.62-28.41 75.58-33 107.22 0 0-23.04 43.91-30.37 61.33 0 0 1.37 2.38 4.12 4.18 2.66 1.74 6.02 2.43 6.02 2.43 0 0 41.57-46.4 44.3-53.73 1.3-3.49 11.2-19.57 20.94-42.06 3.45 10.93 5.54 22.04 4.32 35.7-1.34 15.06-15.41 49.48-12.37 56.81 3.19 7.7 7.62 11.6 17.32 13.83 6.69 1.54 15.87 2.28 28.87 2.93 27.58 1.37 57.13-2.1 61.15-15.21 1.93-6.29 1.19-30.64 0.16-41.87-1.34-14.78-0.04-33.63 1.25-50.96q0.09 0.14 0.19 0.29c3.01 4.57 6.42 9.48 9.94 14.03 5.28 6.83 10.8 12.82 15.52 15.55q1.72 1 3.28 1.38c3.61 0.85 10.23-1.15 18.08-4.59 2.78-1.22 5.73-2.63 8.74-4.15 21.78-11.01 47.53-28.25 47.53-28.25 1.67-9.99-7.02-18.13-7.02-18.13z"/>
					<path class="s8" d="m987.93 405.08c3.19 7.7 7.63 11.6 17.32 13.83 12.97-2.5 21.52-26.35 25.92-38.09 5.07-13.53-21.36-83.09-28.65-82.45-5.42 0.47-6.46 9.34-6.64 13.87 3.51 11.03 5.65 22.23 4.42 36.02-1.34 15.07-15.41 49.49-12.37 56.82z"/>
					<path class="s8" d="m1096.87 314.09c3.02 4.57 6.43 9.48 9.94 14.03 5.04 6.2 10.61 12.2 15.53 15.55q1.72 1 3.28 1.37c3.61 0.86 10.22-1.14 18.07-4.59-4.67 0.35-9.26 0.18-13.77-0.2-7.9-0.67-10.2-9.23-22.69-22.06-7.47-7.66-9.74-6.48-10.36-4.1z"/>
					<path class="s16" d="m1024.72 185.08c4.63 7.58 15.81 23.17 30.75 26.99-0.98-6.33-0.71-12.05-0.44-15.16 0.17-1.58 0.33-2.51 0.33-2.51z"/>
					<path class="s13" d="m1063.4 196.48c0 0-36.83 7.4-41.09-15.61-4.25-23.01-11.87-37.55 11.47-43.24 23.34-5.7 29.54 2.23 32.83 9.57 3.29 7.33 6.26 46.77-3.21 49.28z"/>
					<path class="s12" d="m1045.4 131.88c0 0 0.65 7.81-11.47 21.05-12.11 13.24-9.75 40.02-9.75 40.02 0 0-19.89-41.55-9-53.8 10.89-12.25 30.22-7.27 30.22-7.27z"/>
					<path class="s12" d="m1030.59 121.73c0 0 18.32-6.13 36.48 11.78 7.83 7.71 6.65 22.88 2.46 31.68 0 0-6.44-18.86-18.16-22.97-11.72-4.12-20.78-20.49-20.78-20.49z"/>
					<path class="s4" d="m1051.93 185.16c0 0 0.98 2.73 7.92 1.49 0 0 5.82-1.03 5.28-4.1 0 0-5.94-1.54-13.2 2.61z"/>
				</g>
			</g>
			<path class="s8" d="m505.02 659.09h-395.79c-5.51 0-10.03 4.35-10.03 9.66 0 5.31 4.52 9.65 10.03 9.65h9.12v78.97c0 3.38 2.88 6.14 6.39 6.14h37.39c3.51 0 6.38-2.76 6.38-6.14v-78.97h259.68v78.93c0 3.4 2.89 6.18 6.42 6.18h37.31c3.53 0 6.42-2.78 6.42-6.18v-78.93h26.68c5.51 0 10.03-4.35 10.03-9.65 0-5.31-4.52-9.66-10.03-9.66z"/>
			<g>
				<g>
					<path class="s3" d="m821.72 28.94h-96.75c-25.45 0-46.27 20.83-46.27 46.28v79.69c0 25.45 20.82 46.27 46.27 46.27h96.75c25.45 0 46.27-20.82 46.27-46.27v-79.69c0-25.45-20.82-46.28-46.27-46.28z"/>
					<g>
						<path class="s8" d="m723.78 105.98c0 0-36.38 18.1-37.07 22.63l76.04 0.18c0 0 17.94-3.57 21.52-17.73 5.38-21.27 14.81-20.01 14.81-20.01l-0.48 37.83 10.82 0.03c0 0 16.23-56.31 16.26-67.41 0.02-11.11-4.59-14.2-4.59-14.2 0 0-28.39 2.09-61.82 53.52 0 0-6.59 6.25-35.49 5.16z"/>
					</g>
					<g>
						<path class="s7" d="m752.68 140.01c0 0-32.46 24.45-32.31 29.02l74.8-13.7c0 0 16.98-6.79 17.91-21.37 1.4-21.89 10.91-22.38 10.91-22.38l6.43 37.29 10.65-1.95c0 0 5.67-58.32 3.67-69.25-2-10.92-7.1-13.12-7.1-13.12 0 0-27.53 7.24-51.01 63.91 0 0-5.33 7.35-33.95 11.55z"/>
						<path class="s17" d="m740.62 134.1c0 0 3.06 11.35-3.23 15.2-6.01 3.69-11.34 4.41-11.34 4.41 0 0 18.25-0.88 22.39 15.05 0 0-5.55-16.9 10.95-20.66 0 0-11.68 4.59-18.77-14z"/>
					</g>
				</g>
				<g>
					<path class="s18" d="m764.54 286.24c-1.48 0.63-2.17 2.34-1.54 3.82 0.63 1.47 2.33 2.16 3.81 1.54 1.48-0.63 2.17-2.34 1.54-3.82-0.63-1.48-2.33-2.16-3.81-1.54z"/>
					<path class="s18" d="m785.52 262.21c-2.8 1.19-4.11 4.42-2.92 7.22 1.19 2.8 4.42 4.11 7.23 2.92 2.8-1.19 4.1-4.43 2.91-7.23-1.19-2.8-4.42-4.1-7.22-2.91z"/>
					<path class="s18" d="m809.81 227.08c-1.88-4.45-7.02-6.52-11.46-4.63-4.45 1.89-6.52 7.02-4.64 11.47 1.89 4.44 7.03 6.52 11.47 4.63 4.45-1.89 6.52-7.03 4.63-11.47z"/>
				</g>
			</g>
			<g>
				<g>
					<path class="s7" d="m296.65 298.25h-59.49c-15.65 0-28.46 12.81-28.46 28.46v49c0 15.65 12.81 28.46 28.46 28.46h59.49c15.65 0 28.45-12.81 28.45-28.46v-49c0-15.65-12.8-28.46-28.45-28.46z"/>
					<g>
						<g>
							<path class="s8" d="m258.99 331.29q0 6.44-4 10.96-4 4.53-10.34 4.53-6.25 0-10.35-4.53-4.09-4.52-4.09-10.96 0-6.62 4.05-11.23 4.04-4.62 10.48-4.62 6.43 0 10.48 4.76 3.77 4.47 3.77 11.09zm-14.34 7.82q3.12 0 4.96-2.43 1.56-2.13 1.56-5.48 0-3.25-1.56-5.48-1.74-2.61-4.87-2.61-3.22 0-4.97 2.52-1.56 2.13-1.55 5.57-0.01 3.07 1.74 5.49 1.75 2.42 4.69 2.42zm36.58-20.68q0.01 1.41-1.1 3.74l-15.4 31.88q-1.2 2.71-3.79 8.12-3.19 6.57-9.49 19.78-1.84 3.84-4.96 3.84-1.75-0.01-2.94-1.18-1.2-1.16-1.19-2.94-0.01-1.4 1.37-4.3l28.13-58.66q1.93-4.02 4.78-4.02 4.59 0 4.59 3.74zm12.05 51.17q0 6.55-4.05 11.04-4.04 4.49-10.38 4.49-6.16 0-10.25-4.59-4.09-4.58-4.09-10.94 0-6.74 3.95-11.32 3.95-4.58 10.48-4.58 6.62 0 10.48 4.53 3.86 4.54 3.86 11.37zm-7.91-0.28q0.01-3.27-1.56-5.52-1.84-2.43-4.96-2.44-3.13 0.01-4.87 2.63-1.57 2.24-1.56 5.51-0.01 3.09 1.65 5.34 1.84 2.53 4.78 2.53 3.12-0.01 4.96-2.53 1.57-2.15 1.56-5.52z"/>
						</g>
						<g>
							<path class="s4" d="m294.88 358.24q-3.86-4.54-10.48-4.54-6.53 0-10.48 4.58-3.95 4.58-3.95 11.32 0 6.36 4.09 10.94 4.09 4.59 10.25 4.59 6.34 0 10.39-4.49 4.04-4.49 4.04-11.04 0-6.83-3.86-11.36zm-5.61 16.6q-1.84 2.53-4.96 2.53-2.94 0-4.78-2.53-1.66-2.25-1.65-5.34-0.01-3.27 1.56-5.51 1.74-2.62 4.87-2.62 3.12 0 4.96 2.43 1.57 2.25 1.56 5.52 0.01 3.37-1.56 5.52z"/>
							<path class="s4" d="m260.45 342.25q4-4.52 4-10.96 0-6.62-3.77-11.09-4.05-4.76-10.48-4.76-6.44 0-10.48 4.62-4.04 4.61-4.05 11.23 0.01 6.43 4.1 10.96 4.09 4.53 10.34 4.53 6.34 0 10.34-4.53zm-15.03-5.57q-1.75-2.41-1.74-5.48 0-3.44 1.55-5.58 1.75-2.51 4.97-2.51 3.13 0 4.87 2.6 1.56 2.24 1.57 5.49-0.01 3.35-1.57 5.48-1.84 2.43-4.96 2.43-2.94 0-4.69-2.43z"/>
							<path class="s4" d="m285.59 322.17q1.11-2.33 1.1-3.74 0-3.74-4.59-3.74-2.85 0-4.78 4.02l-28.13 58.66q-1.38 2.9-1.38 4.3 0 1.78 1.19 2.94 1.2 1.17 2.95 1.18 3.12 0 4.96-3.84 6.3-13.21 9.49-19.78 2.59-5.41 3.79-8.12z"/>
						</g>
					</g>
				</g>
				<g>
					<path class="s19" d="m261.49 456.8c-0.91 0.39-1.34 1.44-0.95 2.35 0.39 0.91 1.44 1.33 2.34 0.95 0.91-0.39 1.34-1.44 0.95-2.35-0.39-0.91-1.44-1.33-2.34-0.95z"/>
					<path class="s19" d="m274.39 442.02c-1.72 0.73-2.53 2.72-1.8 4.44 0.73 1.73 2.72 2.53 4.45 1.8 1.72-0.73 2.52-2.72 1.79-4.44-0.73-1.72-2.72-2.53-4.44-1.8z"/>
					<path class="s19" d="m289.33 420.42c-1.16-2.73-4.32-4.01-7.05-2.84-2.74 1.16-4.01 4.31-2.85 7.05 1.16 2.73 4.32 4.01 7.05 2.84 2.73-1.16 4.01-4.31 2.85-7.05z"/>
				</g>
			</g>
			<g>
				<path class="s18" d="m1912.8 258.19h-97.04c-25.52 0-46.41 20.89-46.41 46.41v79.94c0 25.52 20.89 46.41 46.41 46.41h97.04c25.53 0 46.41-20.89 46.41-46.41v-79.94c0-25.52-20.88-46.41-46.41-46.41z"/>
				<g>
					<path class="s18" d="m1855.45 516.81c-1.49 0.62-2.18 2.34-1.55 3.82 0.63 1.48 2.34 2.17 3.82 1.54 1.49-0.63 2.18-2.34 1.55-3.82-0.63-1.48-2.34-2.17-3.82-1.54z"/>
					<path class="s18" d="m1876.49 492.69c-2.81 1.2-4.12 4.44-2.93 7.25 1.2 2.81 4.44 4.12 7.25 2.93 2.81-1.2 4.12-4.44 2.93-7.25-1.2-2.81-4.44-4.12-7.25-2.93z"/>
					<path class="s18" d="m1900.86 457.46c-1.89-4.46-7.04-6.54-11.5-4.64-4.46 1.89-6.54 7.04-4.65 11.5 1.9 4.46 7.05 6.54 11.5 4.64 4.46-1.89 6.54-7.04 4.65-11.5z"/>
				</g>
				<g>
					<path class="s7" d="m1934.38 318.34l-128.14-24.77c-2.43-0.47-4.81 1.14-5.28 3.57l-13.59 70.33c-0.47 2.44 1.13 4.81 3.57 5.28l128.14 24.77c2.43 0.47 4.81-1.14 5.28-3.57l13.59-70.33c0.47-2.44-1.13-4.81-3.57-5.28z"/>
					<path fill-rule="evenodd" class="s8" d="m1796.35 320.2l3.03-15.67 136.98 26.47-3.02 15.67z"/>
					<path fill-rule="evenodd" class="s8" d="m1803.48 338.92l2.38-12.32 83.82 16.19-2.38 12.32z"/>
					<path class="s8" d="m1815.45 351.32l-10.4-2.01c-1.85-0.35-3.64 0.85-3.99 2.7l-1.74 8.98c-0.36 1.85 0.85 3.63 2.7 3.99l10.41 2.01c1.85 0.36 3.63-0.85 3.99-2.7l1.73-8.98c0.36-1.84-0.85-3.63-2.7-3.99z"/>
					<g>
						<path class="s8" d="m1917.21 368.63l-82.34-15.91c-0.71-0.14-1.41 0.33-1.54 1.04l-0.25 1.27c-0.14 0.71 0.33 1.4 1.05 1.54l82.34 15.92c0.71 0.13 1.4-0.33 1.54-1.05l0.25-1.26c0.13-0.72-0.33-1.41-1.05-1.55z"/>
						<path class="s8" d="m1915.81 375.95l-82.37-15.92c-0.7-0.13-1.39 0.33-1.52 1.04l-0.24 1.2c-0.13 0.71 0.33 1.4 1.04 1.53l82.36 15.92c0.71 0.14 1.4-0.33 1.53-1.03l0.24-1.21c0.13-0.71-0.33-1.39-1.04-1.53z"/>
						<path class="s8" d="m1914.46 382.71l-82.28-15.9c-0.73-0.14-1.44 0.34-1.58 1.06l-0.27 1.37c-0.14 0.73 0.34 1.44 1.07 1.58l82.29 15.9c0.73 0.14 1.43-0.34 1.57-1.07l0.27-1.36c0.14-0.73-0.34-1.44-1.07-1.58z"/>
					</g>
				</g>
			</g>
			<g>
				<path fill-rule="evenodd" class="s12" d="m81.66 682.83h66.08l8.46 82.07h-55.03z"/>
				<g>
					<g>
						<path class="s12" d="m124.78 691.7q-0.01 0-0.01 0c-0.6-0.01-1.08-0.27-1.08-0.61 0.23-9.82-2.23-16.16-7.32-18.83-2.06-1.08-4.5-1.55-7.49-1.48-10.83 0.34-13.82 14.79-14.05 20.34-0.02 0.32-0.58 0.61-1.12 0.58-0.59-0.01-1.07-0.28-1.05-0.61 0.04-0.86 1.07-21.03 16.1-21.49 3.52-0.14 6.62 0.49 9.11 1.8 5.62 2.95 8.23 9.4 7.99 19.71 0 0.33-0.49 0.59-1.08 0.59z"/>
					</g>
					<path fill-rule="evenodd" class="s11" d="m72.69 682.83l-12.92 82.07h67.27l6.87-82.07z"/>
					<g>
						<path class="s12" d="m118.41 691.7q0 0-0.01 0c-0.6-0.01-1.08-0.27-1.07-0.61 0.22-9.82-2.24-16.16-7.33-18.83-2.06-1.08-4.49-1.55-7.48-1.48-10.84 0.34-13.82 14.79-14.06 20.34-0.02 0.32-0.46 0.61-1.11 0.58-0.6-0.01-1.07-0.28-1.06-0.61 0.04-0.86 1.07-21.03 16.11-21.49 3.52-0.14 6.61 0.49 9.1 1.8 5.62 2.95 8.23 9.4 8 19.71-0.01 0.33-0.5 0.59-1.09 0.59z"/>
					</g>
				</g>
			</g>
			<g>
				<path fill-rule="evenodd" class="s8" d="m306.04 603.16h58.65l7.5 56.18h-48.84z"/>
				<g>
					<g>
						<path class="s8" d="m344.31 609.31h-0.01c-0.48-0.01-0.87-0.4-0.86-0.88 0.19-12.33-1.73-20.53-5.72-24.4-1.99-1.93-4.46-2.8-7.53-2.65-11.66 0.53-12.55 26.82-12.55 27.08-0.02 0.48-0.42 0.86-0.9 0.85-0.48-0.01-0.86-0.41-0.85-0.89 0.03-1.16 0.95-28.18 14.22-28.79 3.53-0.16 6.51 0.9 8.83 3.15 4.4 4.27 6.45 12.67 6.25 25.67-0.01 0.48-0.4 0.86-0.88 0.86z"/>
					</g>
					<path fill-rule="evenodd" class="s7" d="m298.08 603.16l-11.47 56.18h59.71l6.09-56.18z"/>
					<g>
						<path class="s8" d="m311.11 609.31q-0.01 0-0.02 0c-0.49-0.01-0.87-0.41-0.85-0.89 0.03-1.16 0.95-28.18 14.22-28.79 3.53-0.16 6.5 0.9 8.82 3.15 4.41 4.27 6.45 12.67 6.25 25.67-0.01 0.48-0.39 0.86-0.87 0.86q-0.01 0-0.01 0c-0.49-0.01-0.87-0.4-0.86-0.88 0.19-12.33-1.74-20.53-5.72-24.4-1.99-1.93-4.46-2.8-7.53-2.65-5.98 0.27-9.08 7.51-10.62 13.53-1.73 6.73-1.94 13.49-1.94 13.55-0.01 0.48-0.4 0.85-0.87 0.85z"/>
					</g>
				</g>
				<path fill-rule="evenodd" class="s20" d="m358.69 605.3l-4.87 54.02h13.51z"/>
			</g>
			<g>
				<path class="s21" d="m250.57 582.05c0 0 6.7-4.17 9.61-3.54 2.9 0.63 10.87 2.91 11.12 6.2 0.26 3.28-11.38 8.47-19.97 5.56-8.6-2.91-0.76-8.22-0.76-8.22z"/>
				<path class="s22" d="m215.04 756.94c0 1.48 0.73 2.49 1.96 3.17q0.01 0.01 0.02 0.01c2.28 1.25 5.92 0.29 10.27 0.1 0.56-0.02 1.42 1.05 1.87 1.05q0.18 0 0.35 0 0.14 0.01 0.27 0.01c4.31 0.1 3.85 1.39 12.04 2.1 9.33 0.79 12.77-2.06 13.32-3.36 0.47-1.11-3.54-2.36-8.01-3.79q-0.33-0.1-0.66-0.21-0.89-0.29-1.79-0.58c-5.33-1.77-10.57-3.87-11.88-9.26-1.39-5.72 2.78-21.69 2.78-21.69l-14.79-1.6c0 0-1.42 16.69-2.35 21.89-0.5 2.78-1.76 4.99-2.5 7.36q-0.08 0.25-0.15 0.5c-0.38 1.4-0.75 2.83-0.75 4.3z"/>
				<g>
					<path class="s10" d="m215.04 756.94c0 1.48 0.73 2.49 1.96 3.17q0.01 0.01 0.02 0.01c3.3 2.12 9.17-0.83 18.73 3.58 0.41 0.18 3.62-0.04 5.85-0.07 2.89-0.04 7.07 0.22 8.06 0.07 4.51-0.73 5.18-2.96 5.49-3.69 0.46-1.1-3.55-2.35-8.02-3.78-1.26 0.48-7.24 2.56-14.32 1.22-6.23-1.17-12.42-4.27-16.87-5.31q-0.08 0.25-0.14 0.5c-0.39 1.4-0.76 2.83-0.76 4.3z"/>
					<path fill-rule="evenodd" class="s10" d="m216.53 759.51l2.18 4.08h4.74v-2.99z"/>
				</g>
				<path class="s12" d="m138.61 614.68l47.89-4.56c0 0 73.29 0.33 80.11 10.01 0 0 13.09 9.06-1.7 46.56-14.8 37.49-32.17 74.96-32.17 74.96 0 0-4.42 1.2-10.49 0.73-2.4-0.18-5.63-1-5.63-1 0 0 3.34-55.95 10.74-77.72 7.39-21.77 9.67-17.53-3.41-16.32-13.09 1.21-55.19 10.88-74.53 8.46-19.34-2.42-10.81-41.12-10.81-41.12z"/>
				<path class="s21" d="m401.46 756.94c-0.01 1.48-0.73 2.49-1.96 3.17q-0.01 0.01-0.02 0.01c-2.28 1.25-6.28 1.38-10.64 1.19q-0.83-0.04-1.5-0.04-0.18 0-0.35 0-0.14 0-0.27 0.01c-4.31 0.1-3.86 1.39-12.05 2.09-9.33 0.8-12.77-2.06-13.32-3.36-0.46-1.1 3.54-2.35 8.02-3.78q0.32-0.1 0.65-0.21 0.9-0.29 1.79-0.58c5.33-1.77 10.58-3.87 11.88-9.27 1.39-5.72-2.78-21.68-2.78-21.68l14.79-1.6c0 0 1.43 16.69 2.36 21.89 0.5 2.78 1.76 4.98 2.49 7.36q0.08 0.25 0.15 0.5c0.38 1.4 0.76 2.83 0.76 4.3z"/>
				<path class="s11" d="m401.46 756.94c-0.01 1.48-0.73 2.49-1.96 3.17q-0.01 0.01-0.02 0.01c-2.43 1.12-6.37 1.28-10.63 1.16q-0.83-0.02-1.51-0.01-0.18 0-0.35 0-0.14 0-0.27 0.01c-4.31 0.1-3.86 1.39-12.05 2.09-9.33 0.8-12.77-2.06-13.32-3.36-0.46-1.1 3.54-2.35 8.02-3.78 1.25 0.48 7.24 2.56 14.32 1.22 6.23-1.17 12.41-4.27 16.86-5.31q0.08 0.25 0.15 0.5c0.38 1.4 0.76 2.83 0.76 4.3z"/>
				<path class="s21" d="m205.81 756.94c0 1.48 0.73 2.49 1.96 3.17q0.01 0.01 0.02 0.01c2.28 1.25 5.92 0.29 10.27 0.1 0.56-0.02 1.42 1.05 1.87 1.05q0.18 0 0.35 0 0.14 0.01 0.27 0.01c4.31 0.1 3.85 1.39 12.04 2.1 9.34 0.79 12.78-2.06 13.33-3.36 0.46-1.11-3.55-2.36-8.02-3.79q-0.33-0.1-0.65-0.21-0.9-0.29-1.79-0.58c-5.33-1.77-10.58-3.87-11.89-9.26-1.39-5.72 2.79-21.69 2.79-21.69l-14.8-1.6c0 0-1.42 16.69-2.35 21.89-0.5 2.78-1.76 4.99-2.5 7.36q-0.08 0.25-0.14 0.5c-0.38 1.4-0.76 2.83-0.76 4.3z"/>
				<path class="s21" d="m305.47 738.06c-0.82 4.11-6.67 3.43-13.22 1.83-6.54-1.6-4.98 0.3-14.29-0.73-9.32-1.03-12.14-4.5-12.42-5.89-0.25-1.23 4.35-1.66 9.28-2.23q0.93-0.1 1.87-0.22c5.57-0.7 9.65-4.29 14.71-7.25 4.79-2.79 11.95-14.19 11.95-14.19l12.77 1.01c0 0-6.7 10.18-9.3 14.61-1.52 2.6-1.44 6.04-1.25 8.7 0.1 1.44 0.2 2.92-0.1 4.36z"/>
				<path class="s11" d="m292.25 739.89c-6.54-1.6-4.98 0.3-14.29-0.73-9.32-1.03-12.14-4.5-12.42-5.89-0.25-1.22 4.35-1.66 9.28-2.23l0.05 0.1c0 0 5.58 3.96 13.33 4.15 6.32 0.15 13.01-1.66 17.37-1.59 0.1 1.44 0.19 2.92-0.1 4.37-0.82 4.1-6.67 3.42-13.22 1.82z"/>
				<path class="s23" d="m333.89 550.52c0 0-3.05-7.46-6.39-7.76-3.35-0.31-14-1.98-14.76-0.46-0.76 1.53 0 7 2.28 8.98 2.28 1.98 16.43 5.17 16.43 5.17z"/>
				<path class="s10" d="m354.41 656.42l27.52 74.06c0 0 4.23 0.41 8.28-0.76 3.73-1.08 8-3.9 8-3.9 0 0-6.82-71.11-19.34-85.9-12.52-14.79-24.46 16.5-24.46 16.5z"/>
				<path class="s14" d="m463.26 626.45c0 0-79.08-26.73-96.72-21.05-17.63 5.69-70.58 111.04-70.58 111.04 0 0 1.19 1.59 4.45 2.82 3.04 1.13 10.38 1.06 10.38 1.06 0 0 47.79-40.96 53.48-52.91 5.69-11.94 7.96-23.32 13.65-22.18 5.69 1.13 73.39 27.87 88.75 11.94 15.36-15.93 11.34-36.62 11.34-36.62z"/>
				<path class="s12" d="m414.93 502.07c-1.26-2.61-2.67-7.24-3.36-15.5 0.1 0.82 1.53 11.23 5.53 17.13 16.44 10.8 47.97 46.85 47.34 53.68 0 0 11.11-18.83 11.3-18.94 0 0 20.48-26.05-3.79-40.97-12.34-7.58-12.28-17.31-11.76-25.76 0.52-8.46-3.37-44.85-28.08-35.32 0 0-3.97-1.77-5.74-1.5 0 0 1.45 0.28 2.18 1.04-2.86-0.17-6.96 0.04-10.37 1.98-9.07 5.15-17.17 51.34-3.25 64.16z"/>
				<path class="s23" d="m418.07 504.23c-0.08 0.04 7.94 4.21 13.98 2.56 5.68-1.55 9.38-8.91 9.31-8.93-2.41-0.48-3.1-3.78-3.05-17.97l-1.09 0.21-18.27 3.62c0 0 0.42 5.75 0.43 11.17 0.01 4.54-0.26 8.86-1.31 9.34z"/>
				<path class="s24" d="m418.95 483.72c0 0 0.42 5.75 0.43 11.17 10.22-0.29 15.63-9.62 17.84-14.79z"/>
				<path class="s12" d="m439.11 478.11c0 0 5.36-8.47 6.64-15.7 0.92-5.17-1.71-24.33-20.96-21.57 0 0-5.6 0.55-10.85 4.1-4.18 2.82-10.21 8.92-3.47 25.64l1.75 5.64z"/>
				<path class="s23" d="m415.54 488.85c0 0 24.19 0.4 24.2-14.67 0.02-15.07 3.15-25.17-12.29-26.06-15.45-0.89-18.45 4.85-19.68 9.88-1.23 5.03 1.47 30.36 7.77 30.85z"/>
				<path class="s12" d="m416.43 447.75c0 0 6.63 17.68 16.79 20.29 10.16 2.62 14.58-0.11 14.58-0.11 0 0-7.8-6.19-9.42-17 0 0-16.95-11.59-21.95-3.18z"/>
				<path class="s12" d="m418.07 449.19c0 0-4.94 3.94-6.15 7.78-1.21 3.84-1.75 11.74-4.05 11.47 0 0-4.99-12.02 0.62-18.81 5.94-7.21 9.58-0.44 9.58-0.44z"/>
				<path class="s11" d="m471.94 569.32c2.39-10.01-5.73-29.42-14.2-45.5-7.69-14.56-15.67-26.38-16.38-25.96-20.28 12.04-22.11 2.03-22.11 2.03 0 0-18.42 2.45-23.64 11.43-7.21 12.41-15.06 49.66-22.78 49.11-3.55-0.25-39.2-13.65-39.2-13.65 0 0-5.94 5.56-4.8 12.39 0 0 17.6 11.79 32.49 19.31 7.87 3.98 14.99 6.76 18.33 5.97 6.79-1.59 17.38-17.31 23.1-26.57q0.02-0.03 0.04-0.06c7.31 41.35-2.63 50.77 2.4 55.13 5.31 4.6 12.9-2.19 29.58 5.04 10.95 4.75 26.14 11.61 36.37 12.81 5.36 0.63 9.36-0.31 10.67-3.93 3.79-10.52-14.42-38.48-9.87-57.55z"/>
				<path class="s4" d="m420.91 479.71c0 0-0.45 1.92-5.21 1.62 0 0-4-0.24-3.88-2.35 0 0 3.88-1.5 9.09 0.73z"/>
				<path class="s12" d="m481.81 626.87c-1.31 3.62-5.31 4.56-10.67 3.93-7.08-3.09-37.66-14.93-37.31-22.96 0.51-11.88 5.87-12.26 2.08-26.93-3.04-11.77 25.21-33.67 29.71-38.43 8.48 16.07 8.71 16.83 6.32 26.84-4.55 19.07 13.66 47.03 9.87 57.55z"/>
				<path class="s12" d="m402.75 557.88c-5.72 9.26-16.31 24.98-23.1 26.57-3.34 0.79-10.46-1.99-18.33-5.97 5.75 1.48 11.33 1.44 16.75 0.92 5.88-0.57 7.59-7.78 16.88-18.59 6.03-7.01 7.51-5.24 7.8-2.93z"/>
				<g>
					<path class="s8" d="m429.03 591.22l-7.03-17.78c-0.22-0.57-0.92-0.98-1.55-0.91l-9.98 1.15c-0.34 0.04-0.58 0.22-0.71 0.46h-0.01l-0.96 1.26 8.87 19.49 9.57-1.1 0.62-0.3 1.11-1.47v-0.01c0.15-0.21 0.19-0.5 0.07-0.79z"/>
					<path class="s7" d="m427.97 592.62l-7.02-17.78c-0.23-0.57-0.93-0.98-1.56-0.9l-9.97 1.14c-0.64 0.08-0.97 0.6-0.74 1.17l7.02 17.78c0.23 0.57 0.93 0.98 1.56 0.91l9.98-1.15c0.63-0.07 0.96-0.6 0.73-1.17z"/>
					<path class="s8" d="m413.31 576.28c-0.12-0.32-0.5-0.56-0.85-0.53l-2.35 0.2c-0.36 0.03-0.55 0.32-0.43 0.64 0.11 0.32 0.5 0.56 0.85 0.53l2.35-0.2c0.35-0.03 0.54-0.32 0.43-0.64z"/>
				</g>
				<path class="s23" d="m431.08 580.63c0 0-5.12-3.98-9.96-3.03-4.83 0.94-7.21 4.26-7.02 5.78 0.19 1.52 2.75 5.78 6.45 6.16 3.7 0.38 14.22-2.27 14.22-2.27z"/>
				<path class="s11" d="m441.36 497.86c0 0 19.71 1.22 26.54 10.74 9.61 13.4 26.29 68.11 21.74 80.63l-59.99-0.26c0 0-1.45-6.79 0.57-10.08 2.02-3.29 34.9-8.6 36.41-10.11 1.52-1.52-18.96-29.59-18.96-34.14 0-4.55-6.31-36.78-6.31-36.78z"/>
				<path class="s11" d="m131.92 618.08l44.91-3.79c0 0 73.29 0.32 80.11 9.69 0 0 11.08 6.94-3.72 43.25-14.79 36.31-29.77 76.26-29.77 76.26 0 0-3.32 0.46-7.33 0.13-5.05-0.41-6.73-2.05-6.73-2.05 0 0 1.04-49.68 8.44-70.76 7.39-21.09 10.24-18.94-2.85-17.77-13.08 1.17-49.87 10.35-75.23 5.49-19.15-3.66-7.83-40.45-7.83-40.45z"/>
				<path class="s8" d="m179.49 436.39c0 0-15.02-7.69-21.97 12.03 0 0 6.7-8.35 10.24-7.97 3.54 0.38 11.73-4.06 11.73-4.06z"/>
				<g>
					<path class="s10" d="m205.81 756.94c0 1.48 0.73 2.49 1.96 3.17q0.01 0.01 0.02 0.01c3.31 2.12 9.17-0.83 18.73 3.58 0.41 0.18 3.62-0.04 5.85-0.07 2.89-0.04 7.08 0.22 8.06 0.07 4.51-0.73 5.18-2.96 5.49-3.69 0.46-1.1-3.55-2.35-8.02-3.78-1.26 0.48-7.24 2.56-14.32 1.22-6.23-1.17-12.42-4.27-16.87-5.31q-0.08 0.25-0.14 0.5c-0.38 1.4-0.76 2.83-0.76 4.3z"/>
					<path fill-rule="evenodd" class="s10" d="m207.3 759.51l2.18 4.08h4.74v-2.99z"/>
				</g>
				<path class="s7" d="m253.84 590.72q-0.1 0.63-0.36 1.19c-1.89 4.18-41.34 9.48-46.27 6.83-2.2-1.19-5.41-21.08-8.27-42.71-3.55-26.74-6.58-56.14-6.58-56.14 0 0 16.37 5.17 18.27 13.89 1.89 8.72 2.27 62.58 7.2 65.24 4.93 2.65 25.79 0.38 33 1.51 0 0 3.77 5.97 3.01 10.19z"/>
				<path class="s8" d="m193.43 437.91c-3.07-2.46-7.52-2.15-10.38-1.98 0.73-0.76 2.19-1.04 2.19-1.04-1.78-0.27-5.75 1.5-5.75 1.5-24.71-9.53-27.66 35.29-6.42 40.41 8.23 1.99 51.77-13.65 20.36-38.89z"/>
				<path class="s21" d="m193.53 504.23c0.08 0.04-7.94 4.21-13.98 2.56-5.68-1.55-9.38-8.91-9.3-8.93 2.4-0.48 3.09-3.78 3.04-17.97l1.09 0.21 18.27 3.62c0 0-0.42 5.75-0.43 11.17-0.01 4.54 0.27 8.86 1.31 9.34z"/>
				<path class="s25" d="m192.65 483.72c0 0-0.42 5.75-0.43 11.17-10.22-0.29-15.63-9.62-17.84-14.79z"/>
				<path class="s8" d="m172.49 478.11c0 0-5.36-8.47-6.64-15.7-0.92-5.17 1.71-24.33 20.96-21.57 0 0 5.6 0.55 10.85 4.1 4.18 2.82 10.21 8.92 3.47 25.64l-1.75 5.64z"/>
				<path class="s21" d="m196.07 488.85c0 0-24.2 0.4-24.21-14.67-0.02-15.07-3.15-25.17 12.29-26.06 15.45-0.89 18.45 4.85 19.68 9.88 1.23 5.03-1.47 30.36-7.76 30.85z"/>
				<path class="s8" d="m195.17 447.75c0 0-6.62 17.68-16.79 20.29-10.16 2.62-14.57-0.11-14.57-0.11 0 0 7.79-6.19 9.41-17 0 0 16.95-11.59 21.95-3.18z"/>
				<path class="s8" d="m201.98 522.21c-0.42-1.71 3.2-3.01 4.09-1.48 1.66 2.87 1.99 6.48 2.65 9.36 1.9 8.22 0 19.47 0 19.47z"/>
				<path class="s8" d="m193.53 449.19c0 0 4.94 3.94 6.15 7.78 1.21 3.84 1.75 11.74 4.05 11.47 0 0 4.99-12.02-0.62-18.81-5.94-7.21-9.58-0.44-9.58-0.44z"/>
				<path class="s4" d="m190.69 479.71c0 0 0.45 1.92 5.21 1.62 0 0 4-0.24 3.88-2.35 0 0-3.88-1.5-9.09 0.73z"/>
				<path class="s8" d="m253.84 590.72q-0.1 0.63-0.36 1.19c-1.89 4.18-41.34 9.48-46.27 6.83-2.2-1.19-6.07-25.92-3.29-48.04 2.98 12.65 3.89 38.6 10.87 39.82 7.92 1.39 28.7-1.26 39.05 0.2z"/>
				<path class="s7" d="m210.2 550.57c-9.8 47.27-1.6 54.52-6.69 59.17-0.03 0.02-4.52 1.96-4.55 1.99-5.31 4.6-5.45-0.98-22.13 6.26-7.95 3.45-18.15 8.01-27.05 10.71-3.35 1.02-6.52 1.77-9.32 2.1-5.36 0.63-9.36-0.31-10.66-3.93-3.8-10.52 14.41-38.48 9.86-57.55q-0.06-0.25-0.11-0.49c-0.33-1.67-0.39-3.59-0.22-5.69 0.85-10.64 7.57-26.11 14.53-39.32 7.69-14.56 15.67-26.38 16.38-25.96 20.28 12.04 22.11 2.03 22.11 2.03 0 0 21.2 34.56 17.85 50.68z"/>
				<path class="s8" d="m200.57 611.07c-0.03 0.02 0.03-0.03 0 0-5.31 4.6-7.06-0.31-23.74 6.92-7.95 3.45-18.15 8.01-27.05 10.71-4.04 1.35-7.26 2.01-9.32 2.1-5.36 0.63-9.36-0.31-10.66-3.93-3.8-10.52 14.41-38.48 9.86-57.55-0.04-0.16 6.57-23.04 13.31-35.82 0.23-8.02 38.35-0.75 30.34 46.28-2.45 14.41 15.15 20.1 17.26 31.29z"/>
				<path class="s21" d="m198.92 613.47c0 0 7.47-1.77 10.88-0.38 3.41 1.39 10.24 4.93 9.61 6.83-0.64 1.89-8.73 2.9-12.14 1.01-3.41-1.9-5.94 0.5-10.12-0.89-4.17-1.39 1.77-6.57 1.77-6.57z"/>
				<path class="s7" d="m170.25 497.86c0 0-27.52 0.37-32.45 13.65-4.93 13.27-3.41 59.92 3.79 73.96 7.21 14.03 48.17 32.99 52.72 33.75 4.56 0.76 7.4-6.26 7.21-7.02-0.19-0.75-43.05-35.46-42.86-39.06 0.19-3.6 11.59-75.28 11.59-75.28z"/>
				<g>
					<path class="s26" d="m268.86 567.92l-0.02 0.01c-0.23-0.29-0.61-0.46-1.08-0.41l-13.67 1.38c-0.86 0.09-1.68 0.84-1.81 1.66l-4.2 25.82c-0.07 0.43 0.07 0.8 0.33 1.04v0.01l1.91 1.64 0.91 0.23 13.13-1.33 6.15-28.64z"/>
					<path class="s11" d="m269.58 569.09l-13.66 1.38c-0.87 0.09-1.69 0.84-1.82 1.66l-4.2 25.82c-0.13 0.83 0.47 1.43 1.33 1.35l13.67-1.38c0.86-0.09 1.68-0.84 1.81-1.67l4.2-25.81c0.14-0.83-0.46-1.44-1.33-1.35z"/>
					<path class="s26" d="m268.91 570.45l-3.2 0.42c-0.47 0.06-0.92 0.49-0.98 0.95-0.06 0.46 0.28 0.79 0.76 0.73l3.2-0.42c0.48-0.06 0.92-0.49 0.98-0.95 0.06-0.47-0.28-0.79-0.76-0.73z"/>
				</g>
			</g>
			<g>
				<path class="s8" d="m1978.77 763.06c0 0 36.48 3.13 38.04-3.79 0.21-0.92 5.34-35.46 5.34-35.46l6.29-44.13c0 0-10.67-1.29-14.83 11.26-4.16 12.56-16.42 32.79-34.62 38.07-19.14 5.55-0.22 34.05-0.22 34.05z"/>
				<path class="s21" d="m1805.48 584.55l3.26 1.15c0 0 8.51-14.39 25.9-8.57 0 0 6.95 2.91 2.83 6.71-4.12 3.8-3.1 1.84-8.79 7.31-5.69 5.47-13.46 8.21-18.82 6.37l-5.93-2.09z"/>
				<path class="s8" d="m1658.88 705.12c0 0 121.3-92.68 155.81-93.7 34.5-1.01 146.43 152.19 146.43 152.19h-41.91c0 0-73.86-39.3-99.84-76.66-2.61-3.75-8.2-3.58-10.63 0.3-13.43 21.46-48.54 74.1-71.24 76.36-24.38 2.43-78.62-58.49-78.62-58.49z"/>
				<path class="s21" d="m1670.49 452.92c0 0-0.76 6.08-1.75 13.57-1.31 9.74-3.06 21.84-4.21 25.61l-36.5 9.25-2.68-26.54c0 0 9.14-18.33 9.09-44.27z"/>
				<g>
					<path class="s12" d="m1638.75 508.16l51.86 63.53 18.14 22.21c0 0 32.48 6.08 49.53 7.56 12.3 1.07 51.58-3.94 51.58-3.94l-1.12-11.82c0 0-24.38-10.36-35.96-12.79-11.81-2.48-41.66-9.21-41.66-9.21-11.28-4.11-54.17-59.54-54.17-59.54z"/>
				</g>
				<path class="s11" d="m1604.92 735l106.05-8.65c0 0 0.3-2.13 0.79-5.7q0.22-1.65 0.27-3.46c0.24-10.59-3.92-24.88-5.72-38.92-1.18-9.27-1.33-18.43 1.5-26.35 3.27-9.14 4.77-26.5 5.43-43 0.84-20.66 0.36-39.97 0.37-40.1 1.06-13.17-2.07-27.78-7.31-41.67-10.35-27.4-29.64-42.91-38.7-52.11 0 0-11.07 2.73-39.84-5.9-0.86-0.25-3.33 3.37-4.42 5.48 0 0-12.45 15.75-17.57 54.18-4.58 34.38-0.85 206.2-0.85 206.2z"/>
				<path class="s12" d="m1631.45 544.56c0.21 4.82 42.89 140.66 37.66 150.68-25.31 48.48 38.48 26.64 41.95 14.14-1.23-8.35-3.14-46.73-0.13-58.04 2.49-9.38 1.65-25.92 2.31-42.42-1.07-6.02-3.57-12.23-6.94-18.24-15.86-2.48-76.43-83.52-74.85-46.12z"/>
				<g>
					<path class="s27" d="m1843.57 571.05l-13.15-9.03q-0.17-0.12-0.36-0.18l-0.01-0.01-2.48-1.01-12.1 38.22 10.59 8.57 1.9 0.83q0 0 0 0l0.03 0.01c0.86 0.35 1.95-0.21 2.41-1.33l13.7-33.57c0.39-0.97 0.17-2.02-0.53-2.5z"/>
					<path class="s28" d="m1841.28 570.12l-13.15-9.04c-0.9-0.61-2.18-0.05-2.68 1.19l-13.1 32.1c-0.37 0.9-0.2 1.89 0.42 2.41l12.55 10.51c0.88 0.74 2.26 0.2 2.79-1.1l13.7-33.58c0.4-0.96 0.17-2.01-0.53-2.49z"/>
					<path fill-rule="evenodd" class="s29" d="m1814.81 592.66l12.36 10.35 12.42-30.45-12.95-8.9z"/>
					<path class="s27" d="m1819.14 598.21c-0.48-0.2-1 0.14-1.17 0.76-0.18 0.61 0.07 1.26 0.54 1.45 0.48 0.2 1-0.14 1.17-0.75 0.17-0.62-0.07-1.27-0.54-1.46z"/>
					<path fill-rule="evenodd" class="s30" d="m1827.2 565.7l-10.91 26.15 10.72 8.35 10.71-27.07z"/>
					<path fill-rule="evenodd" class="s31" d="m1827.6 569.5l-7.64 18.32 7.5 5.85 7.51-18.97z"/>
				</g>
				<path class="s21" d="m1807.01 603.07l6.67-0.22c0 0 6.65-13.78 21.87-7.24 0 0 6.11 3.18 2.74 6.74-3.37 3.55-2.58 1.66-7.22 6.78-4.64 5.13-11.19 7.47-15.87 5.41l-5.2-2.34z"/>
				<path class="s11" d="m1641.31 475.27c0 0 26.04 11 39.56 34.49 9.02 15.66 24.53 42.3 33.88 58.33 4.98 8.53 13.3 14.6 22.95 16.72l31.6 6.95 44.38 11.1c0 0 1.06 1.87 0.8 4.95-0.37 4.37-3.22 5.25-3.22 5.25 0 0-41.44 9.97-56.19 11.08-36.34 2.73-53.57-2.03-58.91-4q-1.77-0.66-3.24-1.87c-5.57-4.52-26.92-22.41-38.16-39.5-10.94-16.63-41.1-59.84-41.1-59.84z"/>
				<path class="s7" d="m1604.92 693.94c0 0-11.19 69.67 20.88 69.67 32.07 0 352.97 0 352.97 0 0 0 9.75-6.58 10.43-19.12 0.73-13.3-3.48-18.01-3.48-18.01 0 0-126.35-4.4-152.01-13-128.58-43.09-228.79-19.54-228.79-19.54z"/>
				<path class="s25" d="m1670.49 452.92c0 0-0.76 6.08-1.75 13.57-33.72-9.83-34.3-35.95-34.3-35.95z"/>
				<path class="s21" d="m1675.8 454.87c0 0-40.98 1.21-41.35-24.32-0.36-25.54-5.9-42.58 20.25-44.43 26.16-1.86 31.38 7.81 33.58 16.31 2.19 8.49-1.83 51.46-12.48 52.44z"/>
				<path class="s7" d="m1634.45 430.55c0 0 10.62-34.69 47.09-32.89 21.53 1.07 18.52-23.88 18.52-23.88 0 0-28.82-6.64-52.25-0.16-40.09 11.08-16.95 51.47-13.36 56.93z"/>
			</g>
			<path class="s32" d="m2061.06 767.95h-2039.85q-0.05-0.01-0.05-0.06v-4.25q0-0.05 0.05-0.06h2039.85q0.05 0.01 0.06 0.06v4.25q-0.01 0.05-0.06 0.06z"/>
		</g>
	</g>
</svg>